<?xml version="1.0"?>
<svg xmlns="http://www.w3.org/2000/svg" xmlns:xlink="http://www.w3.org/1999/xlink" xmlns:svgjs="http://svgjs.com/svgjs" version="1.1" width="512" height="512" x="0" y="0" viewBox="0 0 511.789 511.789" style="enable-background:new 0 0 512 512" xml:space="preserve" class=""><g>
<g xmlns="http://www.w3.org/2000/svg">
	<g>
		<path style="" d="M467.492,498.373H44.296c-15.981,0-30.307-8.255-38.321-22.081    c-7.85-13.545-7.97-29.521-0.33-43.836l211.6-396.372c7.577-14.194,22.026-22.668,38.649-22.668    c16.624,0,31.072,8.474,38.65,22.668l0,0l211.599,396.371c7.642,14.314,7.521,30.293-0.33,43.837    C497.8,490.118,483.475,498.373,467.492,498.373z" fill="#f26430" data-original="#ff4c04" class=""/>
	</g>
	<path style="" d="M506.143,432.455L294.544,36.084c-7.578-14.194-22.026-22.668-38.65-22.668v484.957h211.599   c15.982,0,30.308-8.255,38.32-22.081C513.663,462.748,513.784,446.769,506.143,432.455z" fill="#f26430" data-original="#e10000" class=""/>
	<g>
		<path style="" d="M255.895,433.392c-22.056,0-40-17.943-40-39.999s17.944-40,40-40s40,17.944,40,40    S277.951,433.392,255.895,433.392z" fill="#fff3f3" data-original="#fff3f3" class=""/>
	</g>
	<g>
		<path style="" d="M255.896,313.393c-22.057,0-40.001-17.944-40.001-40v-86.5c0-22.056,17.944-40,40-40    s40,17.944,40,40v86.5C295.895,295.449,277.952,313.393,255.896,313.393z" fill="#fff3f3" data-original="#fff3f3" class=""/>
	</g>
	<path style="" d="M255.895,146.893l-0.001,0v166.5c0,0,0.002,0,0.002,0c22.056,0,39.999-17.944,39.999-40v-86.5   C295.895,164.838,277.951,146.893,255.895,146.893z" fill="#fff3f3" data-original="#dad0cb" class=""/>
	<path style="" d="M255.895,353.393l-0.001,0v79.999l0.001,0c22.056,0,40-17.943,40-39.999   S277.951,353.393,255.895,353.393z" fill="#fff3f3" data-original="#dad0cb" class=""/>
</g>















</g></svg>
