<?xml version="1.0"?>
<svg xmlns="http://www.w3.org/2000/svg" xmlns:xlink="http://www.w3.org/1999/xlink" xmlns:svgjs="http://svgjs.com/svgjs" version="1.1" width="512" height="512" x="0" y="0" viewBox="0 0 852.50166 852" style="enable-background:new 0 0 512 512" xml:space="preserve" class=""><g><path xmlns="http://www.w3.org/2000/svg" d="m544.300781 291.449219c-97.835937.15625-186.820312 56.675781-228.546875 145.167969-43.160156-31.695313-97.273437-44.65625-150.121094-35.96875-52.839843 8.6875-99.953124 38.296874-130.703124 82.136718-.257813.261719-.503907.53125-.730469.820313-.25.371093-.484375.753906-.734375 1.125-1.246094 1.84375-2.394532 3.734375-3.597656 5.597656-1.980469 3.105469-3.898438 6.21875-5.714844 9.320313-1.148438 2.046874-2.277344 4.132812-3.367188 6.234374-1.757812 3.378907-3.398437 6.808594-4.953125 10.28125-.839843 1.871094-1.71875 3.703126-2.503906 5.609376-2.214844 5.324218-4.238281 10.773437-5.96875 16.285156-.214844.664062-.359375 1.335937-.5625 2.042968-1.527344 5.039063-2.832031 10.15625-3.988281 15.3125-.386719 1.816407-.707032 3.648438-1.050782 5.476563-.804687 4.304687-1.460937 8.640625-1.988281 13.011719-.226562 1.808594-.464843 3.621094-.628906 5.464844-.519531 6.136718-.890625 12.242187-.890625 18.402343 0 6.152344.371094 12.257813.933594 18.335938.160156 1.835937.394531 3.644531.628906 5.460937.511719 4.371094 1.175781 8.703125 1.980469 13.015625.347656 1.824219.664062 3.65625 1.054687 5.464844 1.117188 5.171875 2.421875 10.273437 3.996094 15.324219.199219.671875.34375 1.324218.558594 2.035156 1.730468 5.511719 3.757812 10.929688 5.960937 16.300781.785157 1.894531 1.675781 3.726563 2.507813 5.582031 1.5625 3.472657 3.195312 6.910157 4.972656 10.304688 1.066406 2.089844 2.1875 4.160156 3.347656 6.21875 1.816406 3.171875 3.734375 6.285156 5.71875 9.324219 1.195313 1.863281 2.339844 3.753906 3.589844 5.59375.257812.371093.484375.757812.742188 1.128906.222656.285156.46875.554687.730468.820313 36.878906 52.574218 96.851563 84.144531 161.070313 84.785156 64.222656.636718 124.808593-29.734375 162.730469-81.566406 78.523437 85.027343 204.746093 105.902343 306.460937 50.671874 101.710937-55.222656 152.949219-172.453124 124.398437-284.613281-28.546874-112.164062-129.59375-190.628906-245.332031-190.507812zm-346.277343 133.183593c38.9375.023438 76.714843 13.214844 107.214843 37.421876-.152343.414062-.246093.851562-.390625 1.335937-1.640625 4.789063-3.058594 9.648437-4.40625 14.558594h-227.0625c32.53125-34.03125 77.5625-53.300781 124.644532-53.316407zm0 346.265626c-47.078126-.007813-92.097657-19.25-124.644532-53.269532h249.054688c-32.402344 34.09375-77.386719 53.355469-124.410156 53.269532zm-145.660157-79.910157c-1.929687-3.023437-3.851562-6.058593-5.59375-9.199219-.65625-1.15625-1.265625-2.316406-1.878906-3.472656-1.949219-3.726562-3.777344-7.503906-5.472656-11.351562-.667969-1.515625-1.332031-3.039063-1.894531-4.566406-1.324219-3.460938-2.660157-6.960938-3.855469-10.535157-.425781-1.328125-.898438-2.585937-1.339844-3.886719-1.445313-4.773437-2.660156-9.628906-3.75-14.570312-.214844-1.027344-.359375-2.050781-.558594-3.074219-.792969-4.128906-1.429687-8.304687-1.917969-12.523437-.15625-1.417969-.324218-2.847656-.449218-4.285156-.429688-5.195313-.765625-10.429688-.765625-15.753907 0-5.332031.335937-10.566406.800781-15.761719.136719-1.4375.292969-2.855468.453125-4.285156.492187-4.226562 1.125-8.402344 1.917969-12.523437.203125-1.023438.347656-2.046875.558594-3.074219 1.039062-4.941406 2.308593-9.796875 3.757812-14.570312.394531-1.332032.867188-2.664063 1.332031-3.886719 1.167969-3.566407 2.460938-7.074219 3.863281-10.535157.609376-1.527343 1.222657-3.050781 1.886719-4.566406 1.691407-3.855468 3.511719-7.640625 5.476563-11.351562.609375-1.15625 1.226562-2.316406 1.878906-3.472656 1.742188-3.144532 3.664062-6.175782 5.589844-9.203126h242.15625c-.359375 2.195313-.550782 4.40625-.84375 6.660157-.449219 3.355469-.976563 6.652343-1.332032 10.082031-.675781 7.679688-1.128906 15.433594-1.128906 23.210938 0 6.75.28125 13.464843.789063 20.121093.101562 1.238281.300781 2.453125.421875 3.6875.171875 1.9375.441406 3.855469.664062 5.773438.402344 3.449219.707032 6.910156 1.238282 10.320312.417968 2.570313 1.011718 5.089844 1.496093 7.644531l.089844.46875c.320313 1.625.597656 3.246094.949219 4.859376.445312 2.144531.816406 4.304687 1.324218 6.433593.640626 2.664063 1.484376 5.324219 2.214844 7.988281 1.011719 3.679688 1.972656 7.367188 3.15625 10.976563.878906 2.730469 1.945313 5.328125 2.925782 8.074219 1.339843 3.472656 2.484374 6.960937 3.902343 10.382812 1.148438 2.664063 2.449219 5.390625 3.695313 8.097656 1.5 3.273438 2.960937 6.566407 4.605468 9.773438.804688 1.550781 1.652344 3.082031 2.480469 4.621094.820313 1.546875 1.621094 2.839844 2.441407 4.261718 1.566406 2.796876 3.101562 5.609376 4.789062 8.355469 1.328125 2.171875 2.765625 4.273438 4.171875 6.402344 1.195313 1.8125 2.371094 3.625 3.609375 5.410156.648438.941407 1.207031 1.933594 1.886719 2.859375zm491.9375 79.910157c-72.957031-.054688-141.394531-35.308594-183.796875-94.675782-1.328125-1.914062-2.890625-3.753906-4.207031-5.695312-3.835937-5.734375-7.421875-11.628906-10.746094-17.707032-.542969-.96875-.988281-1.992187-1.507812-2.980468-2.78125-5.25-5.40625-10.65625-7.761719-16.105469-.585938-1.324219-1.085938-2.660156-1.640625-4.078125-2.109375-5.171875-3.988281-10.421875-5.789063-15.789062-.535156-1.625-1.015624-3.277344-1.507812-4.910157-1.515625-5.148437-2.851562-10.355469-4-15.640625-.402344-1.878906-.832031-3.742187-1.195312-5.621094-1.023438-5.246093-1.792969-10.570312-2.449219-15.980468-.214844-1.863282-.515625-3.714844-.707031-5.609375-.6875-7.089844-1.101563-14.300781-1.101563-21.613281 0-6.355469.441406-12.59375.957031-18.816407.144532-1.660156.253906-3.316406.4375-4.980469.277344-2.660156.734375-5.222656 1.101563-7.832031.933593-6.117187 2.046875-12.304687 3.507812-18.644531.707031-3.046875 1.328125-6.125 2.183594-9.164062.265625-.957032.464844-1.941407.75-2.902344 1.773437-6.046875 3.800781-12.046875 6.074219-17.996094 40.667968-106.945312 154.777344-166.714844 265.851562-139.238281 111.074219 27.46875 184.171875 133.53125 170.304688 247.109375-13.875 113.582031-110.339844 198.9375-224.757813 198.871094zm0 0" fill="#00a499" data-original="#000000" style="" class=""/><path xmlns="http://www.w3.org/2000/svg" d="m597.570312 477.902344c-66.195312 0-119.863281 53.664062-119.863281 119.867187 0 66.195313 53.667969 119.859375 119.863281 119.859375 66.199219 0 119.867188-53.664062 119.867188-119.859375-.074219-66.175781-53.703125-119.792969-119.867188-119.867187zm0 213.085937c-51.484374 0-93.230468-41.734375-93.230468-93.21875 0-51.492187 41.746094-93.230469 93.230468-93.230469 51.488282 0 93.226563 41.738282 93.226563 93.230469-.066406 51.453125-41.765625 93.15625-93.226563 93.21875zm0 0" fill="#00a499" data-original="#000000" style="" class=""/><path xmlns="http://www.w3.org/2000/svg" d="m588.160156 550.671875c-7.070312 7.078125-11.191406 16.566406-11.539062 26.558594-17.667969 1-32.535156 13.574219-36.457032 30.828125-3.925781 17.261718 4.054688 35.023437 19.550782 43.5625 15.507812 8.535156 34.78125 5.777344 47.269531-6.761719 6.960937-6.980469 11.0625-16.308594 11.511719-26.15625 9.84375-.445313 19.171875-4.546875 26.152344-11.507813 15.597656-15.601562 15.597656-40.894531 0-56.5-15.804688-15.070312-40.667969-15.082031-56.488282-.023437zm0 75.328125c-5.265625 5.058594-13.582031 5.058594-18.835937 0-3.796875-3.808594-4.929688-9.53125-2.871094-14.503906 2.054687-4.964844 6.90625-8.207032 12.285156-8.21875 5.382813.011718 10.230469 3.253906 12.289063 8.21875 2.054687 4.972656.925781 10.695312-2.867188 14.503906zm37.65625-37.648438c-5.261718 5.035157-13.554687 5.035157-18.8125 0-3.808594-3.808593-4.953125-9.539062-2.894531-14.511718 2.066406-4.980469 6.921875-8.226563 12.304687-8.226563 5.390626 0 10.242188 3.246094 12.304688 8.226563 2.058594 4.972656.917969 10.703125-2.886719 14.511718zm0 0" fill="#00a499" data-original="#000000" style="" class=""/><path xmlns="http://www.w3.org/2000/svg" d="m234.753906 304.765625 28.25 28.25c15.675782 15.140625 40.59375 14.921875 56.007813-.488281 15.410156-15.414063 15.628906-40.332032.488281-56.011719l-28.246094-28.246094-234.773437-245.691406c-2.507813-2.6484375-5.984375-4.140625-9.632813-4.128906h-35.273437c-7.363281 0-13.324219 5.964843-13.324219 13.316406v61.261719c-.007812 3.640625 1.484375 7.128906 4.128906 9.628906l232.367188 222.109375zm65.914063-9.417969c5.046875 5.222656 4.972656 13.535156-.15625 18.675782-5.144531 5.132812-13.449219 5.207031-18.679688.15625l-18.828125-18.832032 18.828125-18.832031zm-275.78125-270.261718h16.277343l222.117188 232.390624-19.328125 19.316407-219.066406-209.398438zm0 0" fill="#00a499" data-original="#000000" style="" class=""/><path xmlns="http://www.w3.org/2000/svg" d="m384.476562 304.765625c5.074219.023437 9.722657-2.828125 11.988282-7.363281l13.320312-26.636719c2.125-4.257813 1.824219-9.328125-.804687-13.304687-2.621094-3.964844-7.171875-6.230469-11.917969-5.949219-4.75.289062-8.992188 3.085937-11.117188 7.347656l-13.324218 26.636719c-2.050782 4.113281-1.835938 9.003906.578125 12.933594 2.410156 3.917968 6.671875 6.3125 11.277343 6.335937zm0 0" fill="#00a499" data-original="#000000" style="" class=""/><path xmlns="http://www.w3.org/2000/svg" d="m190.660156 319.480469c-6.582031-3.289063-14.582031-.613281-17.875 5.96875-3.285156 6.578125-.617187 14.585937 5.96875 17.871093l26.632813 13.324219c6.585937 3.28125 14.585937.613281 17.878906-5.972656 3.285156-6.578125.617187-14.578125-5.96875-17.871094zm0 0" fill="#00a499" data-original="#000000" style="" class=""/><path xmlns="http://www.w3.org/2000/svg" d="m198.023438 531.175781c-36.773438 0-66.589844 29.8125-66.589844 66.59375 0 36.773438 29.816406 66.585938 66.589844 66.585938 36.773437 0 66.59375-29.8125 66.59375-66.585938-.046876-36.765625-29.839844-66.550781-66.59375-66.59375zm0 106.546875c-22.0625 0-39.957032-17.890625-39.957032-39.953125 0-22.074219 17.894532-39.960937 39.957032-39.960937s39.960937 17.886718 39.960937 39.960937c0 22.0625-17.898437 39.953125-39.960937 39.953125zm0 0" fill="#00a499" data-original="#000000" style="" class=""/></g></svg>
