<svg id="Layer_1" enable-background="new 0 0 512 512" height="512" viewBox="0 0 512 512" width="512" xmlns="http://www.w3.org/2000/svg"><g><g clip-rule="evenodd" fill-rule="evenodd"><path d="m318.392 413.31v-39.6c0-11.452-9.383-20.835-20.835-20.835h-247.978c-11.452 0-20.835 9.383-20.835 20.835v39.6z" fill="#80b4fb"/><path d="m318.392 413.31v-39.6c0-11.452-9.383-20.835-20.835-20.835h-29.112c11.452 0 20.835 9.383 20.835 20.835v39.6z" fill="#61a2f9"/><path d="m297.557 352.875v-65.651c0-11.452-9.384-20.835-20.835-20.835h-206.308c-11.453 0-20.835 9.383-20.835 20.835v65.651z" fill="#f5bc98"/><path d="m297.557 352.875v-65.651c0-11.452-9.384-20.835-20.835-20.835h-29.112c11.452 0 20.835 9.383 20.835 20.835v65.651z" fill="#e59b6c"/><path d="m266.29 352.875v-27.808c0-8.476-6.945-15.449-15.421-15.449h-33.052c-8.476 0-15.449 6.974-15.449 15.449v27.808zm-121.523 0v-27.808c0-8.476-6.973-15.449-15.449-15.449h-33.052c-8.476 0-15.42 6.974-15.42 15.449v27.808z" fill="#e9f5ff"/><path d="m266.29 352.875v-27.808c0-8.476-6.945-15.449-15.421-15.449h-29.141c8.504 0 15.449 6.974 15.449 15.449v27.808zm-121.523 0v-27.808c0-8.476-6.973-15.449-15.449-15.449h-29.112c8.476 0 15.421 6.974 15.421 15.449v27.808z" fill="#cbe2ff"/><path d="m13.323 489.11h320.488c3.203 0 5.811-2.637 5.811-5.84v-64.149c0-3.203-2.608-5.811-5.811-5.811h-320.488c-3.203 0-5.811 2.607-5.811 5.811v64.149c0 3.204 2.608 5.84 5.811 5.84z" fill="#d68756"/><path d="m304.7 489.11h29.111c3.203 0 5.811-2.637 5.811-5.84v-64.149c0-3.203-2.608-5.811-5.811-5.811h-29.111c3.203 0 5.811 2.607 5.811 5.811v64.149c0 3.204-2.608 5.84-5.811 5.84z" fill="#c47443"/><path d="m339.623 451.21v-32.089c0-3.203-2.608-5.811-5.811-5.811h-320.489c-3.203 0-5.811 2.607-5.811 5.811v32.089z" fill="#f5bc98"/><path d="m339.623 451.21v-32.089c0-3.203-2.608-5.811-5.811-5.811h-29.112c3.203 0 5.811 2.607 5.811 5.811v32.089z" fill="#e59b6c"/><path d="m498.677 489.11h-100.092c-3.203 0-5.812-2.637-5.812-5.84v-124.584c0-3.203 2.608-5.812 5.812-5.812h100.092c3.203 0 5.84 2.608 5.84 5.812v124.584c0 3.204-2.637 5.84-5.84 5.84z" fill="#d68756"/><path d="m498.677 489.11h-29.111c3.203 0 5.811-2.637 5.811-5.84v-124.584c0-3.203-2.607-5.812-5.811-5.812h29.111c3.203 0 5.84 2.608 5.84 5.812v124.584c0 3.204-2.637 5.84-5.84 5.84z" fill="#c47443"/><path d="m392.773 402.17v-43.483c0-3.203 2.608-5.812 5.812-5.812h100.092c3.203 0 5.84 2.608 5.84 5.812v43.483z" fill="#f5bc98"/><path d="m469.565 352.875h29.111c3.203 0 5.84 2.608 5.84 5.812v43.483h-29.141v-43.483c.001-3.204-2.606-5.812-5.81-5.812z" fill="#e59b6c"/><path d="m420.071 210.12h57.119c3.203 0 5.84 2.638 5.84 5.841v78.973c0 3.203-2.637 5.841-5.84 5.841h-57.119c-3.203 0-5.811-2.638-5.811-5.841v-78.973c0-3.203 2.608-5.841 5.811-5.841z" fill="#dd636e"/><path d="m448.077 210.12h29.113c3.203 0 5.84 2.638 5.84 5.841v78.973c0 3.203-2.637 5.841-5.84 5.841h-29.113c3.204 0 5.812-2.638 5.812-5.841v-78.973c0-3.203-2.608-5.841-5.812-5.841z" fill="#da4a54"/><path d="m118.915 22.919h274.198c2.098 0 3.799 1.7 3.799 3.798v135.441c0 2.098-1.701 3.798-3.799 3.798h-274.198c-2.098 0-3.827-1.7-3.827-3.798v-135.441c0-2.098 1.729-3.798 3.827-3.798z" fill="#e9f5ff"/><path d="m396.912 162.158c0 2.098-1.729 3.798-3.799 3.798h-118.347l74.269-87.109c2.126-2.438 4.167-2.438 6.18 0l41.698 48.898v34.413z" fill="#95d6a4"/><path d="m209.426 165.956h-90.511c-2.098 0-3.827-1.7-3.827-3.798v-11.056l37.758-44.278c2.013-2.097 4.054-2.097 6.18 0z" fill="#95d6a4"/><path d="m347.446 165.956h-175.437l43.852-51.421 40.792-47.792c1.984-2.409 4.053-2.58 6.15 0l40.764 47.792z" fill="#ccf49f"/><path d="m188.988 86.784c10.205 0 18.539-8.306 18.539-18.511s-8.333-18.538-18.539-18.538c-10.177 0-18.511 8.333-18.511 18.538s8.334 18.511 18.511 18.511z" fill="#ffe07d"/><path d="m337.582 92.311 59.33 69.563v-34.129l-41.698-48.898c-2.013-2.438-4.054-2.438-6.18 0z" fill="#78c2a4"/><path d="m245.172 80.18 73.135 85.776h29.14l-84.644-99.213c-2.098-2.58-4.166-2.409-6.15 0z" fill="#b3e59f"/><path d="m190.718 144.017-31.692-37.192c-2.126-2.097-4.167-2.097-6.18 0l-11.48 13.465 34.81 40.792z" fill="#78c2a4"/></g><path d="m310.908 405.799v-32.089c0-3.657-1.503-7.002-3.94-9.411-2.409-2.438-5.754-3.94-9.411-3.94-82.66 0-165.319 0-247.978 0-3.657 0-7.002 1.502-9.411 3.94-2.438 2.409-3.94 5.754-3.94 9.411v32.089zm110.836-172.405h53.773v-15.761h-53.773zm53.774 14.995h-53.773v14.117h53.773zm0 29.112h-53.773v15.761h53.773zm-286.53-235.249c7.2 0 13.691 2.891 18.425 7.597 4.705 4.733 7.625 11.226 7.625 18.425 0 7.172-2.92 13.691-7.625 18.396-4.734 4.706-11.225 7.626-18.425 7.626-7.172 0-13.663-2.92-18.397-7.626-4.706-4.705-7.625-11.225-7.625-18.396 0-7.199 2.92-13.691 7.625-18.425 4.734-4.706 11.225-7.597 18.397-7.597zm7.796 18.226c-1.984-2.013-4.734-3.231-7.795-3.231-3.033 0-5.783 1.219-7.767 3.231-2.013 1.984-3.232 4.733-3.232 7.795 0 3.033 1.219 5.783 3.232 7.795 1.984 1.984 4.734 3.203 7.767 3.203 3.062 0 5.811-1.219 7.795-3.203 2.013-2.012 3.231-4.762 3.231-7.795 0-3.061-1.219-5.81-3.231-7.795zm-28.205 97.966 12.302-14.428-24.945-29.255-33.336 39.063v4.62zm22.139-25.965 60.236-70.612c2.268-2.636 5.074-4.394 8.617-4.479 3.827-.057 6.86 1.843 9.185 4.791l42.351 49.634 32.257-37.813c2.382-2.665 5.159-4.479 8.845-4.451 3.571.029 6.435 1.758 8.702 4.451l28.489 33.42v-77.019h-116.421c-4.139 0-7.483-3.345-7.483-7.483 0-4.139 3.345-7.513 7.483-7.513h120.134c3.119 0 5.953 1.276 7.994 3.317 2.041 2.04 3.316 4.875 3.316 7.993v135.441c0 3.118-1.275 5.925-3.316 7.993-2.041 2.041-4.875 3.316-7.994 3.316-91.418 0-182.808 0-274.198 0-3.118 0-5.953-1.275-7.994-3.316-2.041-2.068-3.316-4.875-3.316-7.993v-135.439c0-3.118 1.275-5.953 3.316-7.993 2.041-2.041 4.875-3.317 7.994-3.317h120.105c4.139 0 7.512 3.374 7.512 7.513 0 4.138-3.373 7.483-7.512 7.483h-116.42v100.377l24.576-28.801c2.183-2.551 5.33-4.195 8.703-4.195s6.662 1.673 8.816 4.195zm130.196-9.128 29.963 35.094h38.523v-27.977l-37.276-43.711zm10.29 35.093c-23.811-27.921-47.651-55.872-71.491-83.793-23.811 27.921-47.65 55.872-71.462 83.793zm83.056 44.193h68.771c4.138 0 7.482 3.345 7.482 7.483v90.654c0 4.139-3.345 7.512-7.482 7.512h-26.902v37.077h48.389c4.139 0 7.483 3.373 7.483 7.512v136.235c0 4.139-3.345 7.483-7.483 7.483h-111.745c-4.139 0-7.512-3.345-7.512-7.483v-27.61c0-4.139 3.373-7.484 7.512-7.484s7.483 3.346 7.483 7.484v20.099h96.748v-71.916h-96.748v17.858c0 4.139-3.345 7.512-7.483 7.512-4.139 0-7.512-3.373-7.512-7.512v-74.666c0-4.139 3.373-7.512 7.512-7.512h48.359v-37.077h-26.872c-4.139 0-7.512-3.373-7.512-7.512 0-30.219 0-60.436 0-90.654 0-4.139 3.373-7.483 7.512-7.483zm51.251 233.408c0-4.139 3.345-7.512 7.484-7.512s7.512 3.373 7.512 7.512v19.19c0 4.138-3.373 7.512-7.512 7.512-4.14 0-7.484-3.374-7.484-7.512zm-65.254-41.358h96.748v-34.329h-96.748zm-400.257 18.623c0-4.139 3.374-7.512 7.512-7.512h13.72v-32.088c0-7.796 3.203-14.883 8.333-20.013 3.43-3.431 7.711-5.981 12.501-7.313v-59.16c0-7.795 3.203-14.882 8.334-20.013s12.217-8.334 20.013-8.334h86.174c4.139 0 7.483 3.373 7.483 7.512s-3.345 7.512-7.483 7.512h-86.173c-3.657 0-7.002 1.503-9.412 3.912-2.41 2.41-3.94 5.754-3.94 9.411v58.14h16.272v-20.296c0-6.321 2.58-12.047 6.747-16.215 4.139-4.139 9.893-6.718 16.186-6.718h33.053c6.321 0 12.047 2.579 16.214 6.718 4.139 4.168 6.718 9.894 6.718 16.215v20.296h42.633v-20.296c0-6.321 2.58-12.047 6.718-16.215 4.167-4.139 9.893-6.718 16.214-6.718h33.052c6.293 0 12.047 2.579 16.186 6.718 4.167 4.168 6.747 9.894 6.747 16.215v20.296h16.271v-58.14c0-3.657-1.53-7.001-3.939-9.411-2.41-2.409-5.755-3.912-9.411-3.912h-86.175c-4.139 0-7.483-3.373-7.483-7.512s3.345-7.512 7.483-7.512h86.175c7.795 0 14.882 3.203 20.013 8.334s8.334 12.218 8.334 20.013v59.16c4.791 1.332 9.071 3.883 12.501 7.313 5.131 5.13 8.334 12.217 8.334 20.013v32.089h13.72c4.139 0 7.512 3.373 7.512 7.512v75.8c0 4.139-3.373 7.483-7.512 7.483h-332.113c-4.139 0-7.512-3.345-7.512-7.483 0-25.287 0-50.544 0-75.801zm14.996 30.388h141.592c4.139 0 7.483 3.373 7.483 7.512s-3.345 7.483-7.483 7.483h-141.592v22.905h317.144v-22.905h-141.593c-4.139 0-7.483-3.345-7.483-7.483 0-4.139 3.345-7.512 7.483-7.512h141.593v-22.904c-105.705 0-211.439 0-317.144 0v22.904zm243.811-98.335v-20.296c0-2.183-.907-4.167-2.354-5.584-1.445-1.446-3.43-2.353-5.584-2.353h-33.052c-2.183 0-4.167.907-5.584 2.353-1.446 1.417-2.353 3.401-2.353 5.584v20.296zm-121.552 0v-20.296c0-2.183-.907-4.167-2.353-5.584-1.417-1.446-3.401-2.353-5.584-2.353h-33.052c-2.154 0-4.139.907-5.584 2.353-1.446 1.417-2.353 3.401-2.353 5.584v20.296z"/></g></svg>