<?xml version="1.0"?>
<svg xmlns="http://www.w3.org/2000/svg" xmlns:xlink="http://www.w3.org/1999/xlink" xmlns:svgjs="http://svgjs.com/svgjs" version="1.1" width="512" height="512" x="0" y="0" viewBox="0 0 512.415 512.415" style="enable-background:new 0 0 512 512" xml:space="preserve" class=""><g><g xmlns="http://www.w3.org/2000/svg"><path d="m98.098 435.514h30.737c60.774 0 120.549-23.438 164.735-67.625l4.394-4.393v-33.981h33.136l110.473-110.117c66.169-66.169 77.483-155.702 67.742-204.467l-1.961-9.806-9.806-1.961c-53.539-10.701-141.01 4.284-204.43 67.705l-47.155 46.826v33.821h-33.332l-68.043 67.882c-43.48 43.48-67.625 102.433-67.625 164.246v30.58l-76.912 76.99 21.224 21.202zm283.866-388.948c32.118-13.265 67.829-18.077 99.259-15.3 1.585 17.951 2.121 56.808-15.429 99.247h-83.83zm68.412 113.948c-7.936 12.738-17.784 25.437-29.999 37.652l-101.675 101.348h-50.738v51.418c-37.038 34.76-87.387 54.582-139.128 54.582h-.767l160.836-161h57.06v-30h-27.091l53.945-54zm-343.412 223.129c0-54.294 20.896-105.091 58.826-143.021l59.248-59.108h50.926v-51.333l38.331-38.064c11.669-11.669 24.246-21.706 37.669-30.105v76.929l-139 139.142v-26.57h-30v56.6l-76 76.078z" fill="#cccccc" data-original="#000000" style="" class=""/></g></g></svg>
