<?xml version="1.0"?>
<svg xmlns="http://www.w3.org/2000/svg" xmlns:xlink="http://www.w3.org/1999/xlink" xmlns:svgjs="http://svgjs.com/svgjs" version="1.1" width="512" height="512" x="0" y="0" viewBox="0 0 483.583 483.583" style="enable-background:new 0 0 512 512" xml:space="preserve" class=""><g>
<g xmlns="http://www.w3.org/2000/svg">
	<g>
		<path d="M313.795,337.015v-37.704l37.656-37.656c1.504-1.496,2.344-3.536,2.344-5.656v-77.104l38.152-45.776    c1.192-1.44,1.848-3.248,1.848-5.12v-64c0-2.12-0.84-4.16-2.344-5.656l-24-24c-1.496-1.504-3.528-2.344-5.656-2.344h-20.688    l-21.656-21.656c-1.584-1.592-3.672-2.384-6.04-2.336l-166.928,7.952L75.531,0.191c-2.664-0.592-5.432,0.216-7.368,2.128    c-1.936,1.92-2.76,4.688-2.184,7.352l24,112c0.32,1.504,1.072,2.888,2.168,3.984l37.648,37.656v92.688    c0,2.12,0.84,4.16,2.344,5.656l37.656,37.656v37.704L0.715,360.071l2.16,15.848l106.664-14.544l61.096,122.2l14.312-7.16    l-58.664-117.328l45.768-6.24l38.064,129.4l15.344-4.512l-7.816-26.576l18.488,18.488c1.568,1.568,3.616,2.352,5.664,2.352    c2.048,0,4.096-0.784,5.656-2.344l18.488-18.488l-7.816,26.576l15.344,4.512l38.064-129.4l45.768,6.24l-58.664,117.328    l14.312,7.16l61.096-122.2l106.664,14.544l2.16-15.848L313.795,337.015z M129.795,96.943v43.744l-24.672-24.68L84.235,18.511    l59.832,13.296c0.688,0.16,1.36,0.2,2.12,0.184l164.448-7.832l21.504,21.496c1.496,1.504,3.528,2.344,5.656,2.344h20.688    l19.312,19.312v57.792l-31.872,38.248l-14.296-17.872l27.824-27.824l-11.312-11.312l-26.344,26.344v-25.376l29.656-29.656    l-11.312-11.312l-18.344,18.344v-4.688h-0.048c0-2.104-0.784-4.144-2.296-5.656l-32-32l-11.312,11.312l23.88,23.888    l-32.968,15.216l-27.008-33.76l-12.496,9.992l24.536,30.672l-18.68,8.624l-41.952-41.952l-11.312,11.312l37.784,37.784    l-7.984,3.688l-92.56-46.28l-7.16,14.312L129.795,96.943z M205.299,409.183l-13.888-47.24l37.616,23.512L205.299,409.183z     M241.795,452.687l-28.688-28.688l28.688-28.688l28.688,28.688L241.795,452.687z M278.283,409.175l-23.72-23.72l37.616-23.512    L278.283,409.175z M297.795,339.567l-56,35l-56-35v-24.256l18.344,18.344c1.496,1.504,3.528,2.344,5.656,2.344h64    c2.128,0,4.16-0.84,5.656-2.344l18.344-18.344V339.567z M270.483,319.999h-57.376l-67.312-67.312V104.943l60.424,30.208    c1.12,0.568,2.352,0.848,3.576,0.848c1.144,0,2.288-0.248,3.352-0.736l92.648-42.76v43.496c0,1.816,0.616,3.576,1.752,5    l30.248,37.808v73.88L270.483,319.999z" fill="#808080" data-original="#000000" style="" class=""/>
	</g>
</g>
<g xmlns="http://www.w3.org/2000/svg">
	<g>
		<path d="M297.795,223.999c0,30.88-25.128,56-56,56v16c39.704,0,72-32.304,72-72H297.795z" fill="#808080" data-original="#000000" style="" class=""/>
	</g>
</g>
<g xmlns="http://www.w3.org/2000/svg">
</g>
<g xmlns="http://www.w3.org/2000/svg">
</g>
<g xmlns="http://www.w3.org/2000/svg">
</g>
<g xmlns="http://www.w3.org/2000/svg">
</g>
<g xmlns="http://www.w3.org/2000/svg">
</g>
<g xmlns="http://www.w3.org/2000/svg">
</g>
<g xmlns="http://www.w3.org/2000/svg">
</g>
<g xmlns="http://www.w3.org/2000/svg">
</g>
<g xmlns="http://www.w3.org/2000/svg">
</g>
<g xmlns="http://www.w3.org/2000/svg">
</g>
<g xmlns="http://www.w3.org/2000/svg">
</g>
<g xmlns="http://www.w3.org/2000/svg">
</g>
<g xmlns="http://www.w3.org/2000/svg">
</g>
<g xmlns="http://www.w3.org/2000/svg">
</g>
<g xmlns="http://www.w3.org/2000/svg">
</g>
</g></svg>
