<?xml version="1.0"?>
<svg xmlns="http://www.w3.org/2000/svg" xmlns:xlink="http://www.w3.org/1999/xlink" xmlns:svgjs="http://svgjs.com/svgjs" version="1.1" width="512" height="512" x="0" y="0" viewBox="0 0 512 512" style="enable-background:new 0 0 512 512" xml:space="preserve" class=""><g><g xmlns="http://www.w3.org/2000/svg"><path d="m504.5 410.602c4.142 0 7.5-3.357 7.5-7.5v-117.602c0-20.678-16.822-37.5-37.5-37.5h-57.03v-26.69c0-20.678-16.822-37.5-37.5-37.5h-61.94c-20.678 0-37.5 16.822-37.5 37.5v26.69h-13.53v-105.5c0-20.678-16.822-37.5-37.5-37.5h-35.7v-26.709c8.729-3.097 14.999-11.434 14.999-21.21v-14.581c0-23.435-19.065-42.5-42.5-42.5h-65.598c-23.435 0-42.5 19.065-42.5 42.5v14.581c0 9.776 6.27 18.113 14.999 21.21v26.709h-35.7c-20.678 0-37.5 16.822-37.5 37.5v302c0 16.852 11.174 31.139 26.5 35.851v7.149c0 13.51 10.991 24.5 24.5 24.5s24.5-10.99 24.5-24.5v-5.5h111.255c3.484 17.096 18.635 30 36.745 30h251c20.678 0 37.5-16.822 37.5-37.5v-36.398c0-4.143-3.358-7.5-7.5-7.5s-7.5 3.357-7.5 7.5v13.898h-296v-144h296v95.102c0 4.142 3.358 7.5 7.5 7.5zm-208.97-189.292c0-12.406 10.093-22.5 22.5-22.5h61.94c12.407 0 22.5 10.094 22.5 22.5v26.69h-14.996v-23.692c0-5.79-4.71-10.5-10.5-10.5h-55.949c-5.79 0-10.5 4.71-10.5 10.5v23.692h-14.995zm76.945 7.498v19.192h-46.949v-19.192zm-299.274-186.308c0-15.163 12.336-27.5 27.5-27.5h65.598c15.164 0 27.5 12.337 27.5 27.5v14.581c0 4.132-3.359 7.494-7.49 7.499h-.019c-4.131-.005-7.491-3.366-7.491-7.499v-14.581c0-6.893-5.607-12.5-12.5-12.5h-65.598c-6.893 0-12.5 5.607-12.5 12.5v14.581c0 4.133-3.359 7.494-7.491 7.499h-.019c-4.131-.005-7.49-3.367-7.49-7.499zm105.599 35.791v26.709h-90.6v-26.709c8.73-3.096 15.001-11.433 15.001-21.21v-12.081h60.598v12.081c0 9.777 6.271 18.114 15.001 21.21zm-118.3 409.209c0 5.238-4.262 9.5-9.5 9.5s-9.5-4.262-9.5-9.5v-5.5h19zm125.5-20.5h-148.5c-12.407 0-22.5-10.094-22.5-22.5v-37.5h171zm0-181.5v23.759c-16.042 16.74-40.421 31.637-52.589 36.205-15.051-5.492-44.954-24.582-59.65-44.732-11.077-15.192-9.446-35.835 3.879-49.085 12.785-12.72 32.871-13.569 45.725-1.938 5.778 5.237 14.494 5.237 20.267.005 12.862-11.631 32.948-10.782 45.733 1.938 2.583 2.566 4.738 5.441 6.461 8.574-6.1 6.67-9.826 15.545-9.826 25.274zm311 181.5v7.5c0 12.406-10.093 22.5-22.5 22.5h-251c-12.407 0-22.5-10.094-22.5-22.5v-7.5zm-297.061-225.986c-18.438-18.346-47.591-19.409-66.375-2.421-.022.021-.106.021-.132-.003-18.774-16.993-47.928-15.927-66.371 2.422-18.612 18.507-20.893 47.339-5.421 68.559 16.648 22.825 49.392 43.695 66.621 49.982 3.41 1.244 7.155 1.229 10.554-.058 12.324-4.664 31.452-16.29 47.185-29.715v62.22h-171v-197h48.812c4.142 0 7.5-3.357 7.5-7.5s-3.358-7.5-7.5-7.5h-48.812v-37.5c0-12.406 10.093-22.5 22.5-22.5h192c12.407 0 22.5 10.094 22.5 22.5v37.5h-153.188c-4.142 0-7.5 3.357-7.5 7.5s3.358 7.5 7.5 7.5h153.188v53h-28.5c-5.515 0-10.75 1.206-15.471 3.354-2.241-3.747-4.939-7.21-8.09-10.34zm1.061 51.986v-7.5c0-12.406 10.093-22.5 22.5-22.5h251c12.407 0 22.5 10.094 22.5 22.5v7.5zm148 41.319c-15.562-13.175-39.012-12.033-53.952 2.829-15.35 15.269-17.228 39.048-4.465 56.543 14.042 19.251 40.361 35.434 53.727 40.31 3.056 1.115 6.413 1.098 9.457-.052 13.699-5.173 40.687-22.485 53.65-40.258 12.763-17.495 10.884-41.275-4.465-56.543-14.939-14.859-38.388-16-53.952-2.829zm43.374 13.464c10.062 10.009 11.292 25.598 2.925 37.068-10.538 14.446-34.221 30.12-46.339 34.875-11.941-4.528-34.893-19.295-46.258-34.875-8.367-11.47-7.137-27.06 2.925-37.068 5.082-5.055 11.692-7.616 18.217-7.616 5.8 0 11.534 2.025 16.063 6.124 5.183 4.69 13.001 4.693 18.185.002 9.627-8.71 24.685-8.057 34.282 1.49z" fill="#ff4b34" data-original="#000000" style="" class=""/></g></g></svg>
