<?xml version="1.0"?>
<svg xmlns="http://www.w3.org/2000/svg" xmlns:xlink="http://www.w3.org/1999/xlink" xmlns:svgjs="http://svgjs.com/svgjs" version="1.1" width="512" height="512" x="0" y="0" viewBox="0 0 512.003 512.003" style="enable-background:new 0 0 512 512" xml:space="preserve" class=""><g>
<g xmlns="http://www.w3.org/2000/svg">
	<g>
		<g>
			<path d="M503.405,429.543c-9.074-6.297-21.536-4.048-27.834,5.026c-25.345,36.51-99.115,36.531-124.473,0     c-3.738-5.385-9.875-8.596-16.43-8.596s-12.693,3.211-16.43,8.595c-25.345,36.511-99.115,36.532-124.474,0     c-3.738-5.384-9.875-8.595-16.43-8.595s-12.693,3.212-16.43,8.596c-25.345,36.512-99.114,36.531-124.473,0     c-6.299-9.075-18.762-11.323-27.834-5.026c-9.074,6.299-11.324,18.759-5.025,27.833c36.718,52.896,125.485,58.622,173.762,17.951     c42.455,35.765,115.376,35.346,157.333,0c48.264,40.661,137.076,34.897,173.761-17.951     C514.727,448.302,512.477,435.842,503.405,429.543z" fill="#ffffff" data-original="#000000" style="" class=""/>
			<path d="M98.001,315.981c11.046,0,20-8.954,20-19.999v-29.998H298v29.998c0,11.045,8.954,19.999,20,19.999     c11.046,0,20-8.954,20-19.999V77.997c0-15.438,12.56-27.998,28-27.998c15.439,0,28,12.56,28,27.998     c0,11.045,8.954,19.999,20,19.999c11.046,0,20-8.954,20-19.999c0-37.493-30.505-67.996-67.999-67.996     c-37.494,0-68,30.503-68,67.996v57.996h-180V77.997c0-15.438,12.56-27.998,28-27.998s28,12.56,28,27.998     c0,11.045,8.954,19.999,20,19.999c11.046,0,20-8.954,20-19.999c-0.001-37.493-30.505-67.996-68-67.996s-68,30.503-68,67.996     v217.986C78.001,307.027,86.955,315.981,98.001,315.981z M118.001,175.99H298v0v49.997H118.001V175.99z" fill="#ffffff" data-original="#000000" style="" class=""/>
			<path d="M177.337,385.333c20.135,16.963,48.061,26.642,78.666,26.642c30.605,0,58.53-9.679,78.666-26.642     c48.264,40.661,137.076,34.897,173.761-17.951c6.299-9.074,4.049-21.535-5.025-27.833c-9.074-6.297-21.536-4.048-27.834,5.026     c-25.345,36.51-99.115,36.531-124.473,0c-3.738-5.385-9.875-8.596-16.43-8.596s-12.693,3.211-16.43,8.595     c-25.345,36.511-99.115,36.532-124.474,0c-3.738-5.384-9.875-8.595-16.43-8.595s-12.693,3.212-16.43,8.596     c-25.345,36.512-99.114,36.531-124.473,0c-6.299-9.075-18.762-11.323-27.834-5.026c-9.074,6.299-11.324,18.759-5.025,27.833     C40.29,420.278,129.057,426.004,177.337,385.333z" fill="#ffffff" data-original="#000000" style="" class=""/>
		</g>
	</g>
</g>
<g xmlns="http://www.w3.org/2000/svg">
</g>
<g xmlns="http://www.w3.org/2000/svg">
</g>
<g xmlns="http://www.w3.org/2000/svg">
</g>
<g xmlns="http://www.w3.org/2000/svg">
</g>
<g xmlns="http://www.w3.org/2000/svg">
</g>
<g xmlns="http://www.w3.org/2000/svg">
</g>
<g xmlns="http://www.w3.org/2000/svg">
</g>
<g xmlns="http://www.w3.org/2000/svg">
</g>
<g xmlns="http://www.w3.org/2000/svg">
</g>
<g xmlns="http://www.w3.org/2000/svg">
</g>
<g xmlns="http://www.w3.org/2000/svg">
</g>
<g xmlns="http://www.w3.org/2000/svg">
</g>
<g xmlns="http://www.w3.org/2000/svg">
</g>
<g xmlns="http://www.w3.org/2000/svg">
</g>
<g xmlns="http://www.w3.org/2000/svg">
</g>
</g></svg>
