<?xml version="1.0"?>
<svg xmlns="http://www.w3.org/2000/svg" xmlns:xlink="http://www.w3.org/1999/xlink" xmlns:svgjs="http://svgjs.com/svgjs" version="1.1" width="512" height="512" x="0" y="0" viewBox="0 0 512 512" style="enable-background:new 0 0 512 512" xml:space="preserve" class=""><g><g xmlns="http://www.w3.org/2000/svg"><path d="m480 368v-186.979l4.522 2.184c3.979 1.921 8.762.252 10.682-3.726.524-1.085.796-2.274.796-3.479v-40c0-3.07-1.757-5.87-4.522-7.205l-232-112c-2.198-1.06-4.758-1.06-6.956 0l-152 73.38 6.956 14.409 148.522-71.701 224 108.138v22.233l-220.529-106.462c-2.265-.998-4.721-.998-6.942 0l-220.529 106.462v-22.233l59.478-28.713-6.956-14.408-64 30.9c-2.763 1.334-4.52 4.131-4.522 7.2v40c0 4.418 3.581 8 7.999 8.001 1.205 0 2.394-.272 3.479-.796l4.522-2.184v266.979h-8c-4.418 0-8 3.582-8 8v32c0 4.418 3.582 8 8 8h464c4.418 0 8-3.582 8-8v-32c0-4.418-3.582-8-8-8h-8v-64h-16v64h-16v-256c0-3.081-1.77-5.888-4.549-7.217l-184-88c-2.182-1.043-4.718-1.043-6.9 0l-184 88c-2.78 1.328-4.55 4.136-4.551 7.217v256h-16v-274.7l208-100.417 208 100.417v194.7zm-360 80v-270.089l24-11.478v281.567zm40-289.219 24-11.481v300.7h-24zm184 49.219v32c-2.122 0-4.157.843-5.657 2.343l-32 32c-3.124 3.124-3.124 8.189 0 11.314 1.5 1.5 3.535 2.343 5.657 2.343h80c4.418 0 8-3.581 8-8 0-2.122-.843-4.157-2.343-5.657l-32-32c-1.5-1.5-3.535-2.343-5.657-2.343v-32h72v208h-18.234l-13.579-40.738 7.733-54.131-15.84-2.262-7.019 49.131h-41.061c-3.444 0-6.501 2.203-7.59 5.47l-14.176 42.53h-26.234v-208zm3.313 48h9.374l16 16h-41.374zm38.921 128 10.666 32h-57.8l10.666-32zm-106.234 32h-80v-208h80zm-80 16h232v16h-232zm56-319.132 165.459 79.132h-221.459v-52.35zm-176 84.174 24-11.479v262.437h-24zm400 266.958v16h-448v-16z" fill="#444444" data-original="#000000" style=""/><path d="m248 336h16v32h-16z" fill="#444444" data-original="#000000" style=""/></g></g></svg>
