<?xml version="1.0"?>
<svg xmlns="http://www.w3.org/2000/svg" xmlns:xlink="http://www.w3.org/1999/xlink" xmlns:svgjs="http://svgjs.com/svgjs" version="1.1" width="512" height="512" x="0" y="0" viewBox="0 0 511.998 511.998" style="enable-background:new 0 0 512 512" xml:space="preserve" class=""><g>
<g xmlns="http://www.w3.org/2000/svg">
	<g>
		<path d="M303.129,398.049l-47.023-91.87c-7.447-14.547-28.349-14.688-35.85,0.001l-47.022,91.87    c-29.443,49.556,5.925,113.949,64.948,113.949C296.889,511.998,332.78,447.939,303.129,398.049z M238.181,496.498    c-46.415,0-75.398-50.834-51.514-90.71c0.431-0.722,47.313-92.515,47.723-93.109c1.842-2.706,6.243-2.707,7.916,0.563    c49.209,96.129,47.122,92.1,47.386,92.544C313.417,445.397,284.894,496.498,238.181,496.498z" fill="#40c1fa" data-original="#000000" style="" class=""/>
	</g>
</g>
<g xmlns="http://www.w3.org/2000/svg">
	<g>
		<path d="M236.98,266.41c-42.161-60.161-52.224-129.787-54.469-165.935c-0.266-4.272-3.949-7.532-8.216-7.256    c-4.272,0.265-7.52,3.944-7.256,8.216c1.997,32.141,9.937,89.653,39.574,145.067L66.418,157.873    c-49.463-30.562-64.553-92.179-17.205-127.6c43.541-32.575,104.577-7.866,115.589,41.502c0.931,4.178,5.074,6.806,9.252,5.878    c4.178-0.932,6.809-5.075,5.878-9.252C166.539,8.361,92.692-21.61,39.927,17.862C-15.845,59.585-1.047,134.41,58.203,171.018    c178.014,112.004,168.16,107.591,172.427,107.59C236.894,278.608,240.574,271.538,236.98,266.41z" fill="#40c1fa" data-original="#000000" style="" class=""/>
	</g>
</g>
<g xmlns="http://www.w3.org/2000/svg">
	<g>
		<path d="M487.298,21.564C445.21-16.238,393.459,8.645,364.96,58.751c-0.112,0.197,2.501-4.738-110.182,208.485    c-4.132,7.818,6.034,15.217,12.249,9.185c81.186-78.755,142.647-112.625,172.058-125.805c3.905-1.751,5.654-6.336,3.902-10.242    c-1.75-3.906-6.336-5.654-10.242-3.903c-26.108,11.7-76.597,39.107-142.99,97.758l88.738-167.916    c23.297-40.883,63.917-64.231,98.445-33.216c30.342,27.249,24.908,71.9-15.698,91.974c-3.837,1.896-5.409,6.546-3.513,10.383    c1.897,3.837,6.548,5.411,10.384,3.513C518.907,113.855,525.552,55.919,487.298,21.564z" fill="#40c1fa" data-original="#000000" style="" class=""/>
	</g>
</g>
<g xmlns="http://www.w3.org/2000/svg">
	<g>
		<path d="M202.141,269.643l-74.894-12.614c-42.965-10.001-81.496,30.674-67.95,73.528c13.501,42.699,68.333,54.146,97.869,21.102    l54.031-53.375C220.96,288.64,215.733,271.899,202.141,269.643z M145.74,341.182c-21.498,24.27-61.771,15.988-71.662-15.297    c-9.87-31.215,18.217-61.23,49.845-53.714c0.569,0.136,75.563,12.72,75.866,12.81c0.602,0.181,0.812,0.692,0.884,0.982    C201.065,287.532,149.335,337.125,145.74,341.182z" fill="#40c1fa" data-original="#000000" style="" class=""/>
	</g>
</g>
<g xmlns="http://www.w3.org/2000/svg">
	<g>
		<path d="M255.196,121.119c-3.201-0.472-5.996-0.43-5.891-0.426c-30.514,0.013-49.213,33.265-33.863,59.254l21.874,42.688    c4.715,9.198,17.496,9.851,23.172,1.503c0.888-1.291-0.351,0.852,22.735-44.223C297.423,155.806,282.323,125.084,255.196,121.119z     M269.782,172.19c-0.246,0.409,1.12-2.218-20.435,39.934c-21.582-42.102-20.206-39.466-20.473-39.916    c-4.44-7.402-4.521-16.359-0.219-23.958c7.235-12.781,20.766-12.085,20.663-12.057    C267.824,136.194,279.204,156.443,269.782,172.19z" fill="#40c1fa" data-original="#000000" style="" class=""/>
	</g>
</g>
<g xmlns="http://www.w3.org/2000/svg">
	<g>
		<path d="M509.367,202.607c-0.161-1.497-9.745-22.846-22.406-26.237c-10.68-2.862-21.653,0.057-29.412,7.806l-25.754,22.906    c-7.321,6.515-4.026,18.458,5.325,20.514c38.602,8.528,37.4,8.651,41.928,8.651C497.01,236.247,511.313,220.535,509.367,202.607z     M474.865,220.141c-0.378-0.112-8.154-1.83-27.515-6.148c14.723-13.1,20.781-18.469,21.055-18.749    c8.636-8.779,24.151-3.87,25.552,9.032C494.487,209.161,485.293,223.202,474.865,220.141z" fill="#40c1fa" data-original="#000000" style="" class=""/>
	</g>
</g>
<g xmlns="http://www.w3.org/2000/svg">
	<g>
		<path d="M117.426,420.889l-29.96,17.034c-19.389,9.594-22.696,35.87-6.799,49.993c19.363,17.225,49.518,4.111,50.777-21.135    l3.704-34.263C136.199,422.789,125.758,416.126,117.426,420.889z M115.967,465.869c-0.507,12.378-15.372,19.041-24.998,10.464    c-7.628-6.776-6.285-19.846,3.494-24.576c0.155-0.074,0.308-0.155,0.457-0.24l24.06-13.68    C116.808,457.974,115.984,465.468,115.967,465.869z" fill="#40c1fa" data-original="#000000" style="" class=""/>
	</g>
</g>
<g xmlns="http://www.w3.org/2000/svg">
	<g>
		<path d="M78.634,223.775c-0.834-1.176,0.024-0.078-24.502-26.433c-14.899-17.944-44.036-13.109-52.072,9.12    c-8.041,22.21,11.181,44.607,34.168,40.339l34.194-4.323C79.502,241.33,83.779,230.894,78.634,223.775z M33.536,231.535    c-12.156,2.365-22.091-10.555-15.962-21.9c4.835-9,17.87-10.687,24.718-2.285c0.259,0.316,5.191,5.587,19.212,20.632    C41.367,230.532,33.933,231.458,33.536,231.535z" fill="#40c1fa" data-original="#000000" style="" class=""/>
	</g>
</g>
<g xmlns="http://www.w3.org/2000/svg">
	<g>
		<path d="M454.398,294.018c-15.082-15.606-35.648-23.872-57.585-22.815c-0.003,0-0.013,0-0.025,0c-0.023,0-0.044-0.001-0.062-0.001    c0.006,0,0.013,0,0.02,0c-0.017,0-0.036-0.001-0.06-0.001c0.006,0,0.011,0,0.018,0c-0.053-0.001-0.069-0.001-0.064-0.001    c-1.484-0.022-14.321-0.214-103.335-1.547c-11.108,0-20.144,9.051-20.144,20.174c0,10.904,3.014,8.651,62.743,96.103    c10.166,16.709,26.118,28.629,44.946,33.574c4.14,1.091,8.377-1.387,9.465-5.528c1.088-4.141-1.388-8.378-5.528-9.465    c-14.992-3.937-27.687-13.461-35.751-26.818c-0.089-0.148-0.183-0.291-0.281-0.432c-62.513-90.212-60.093-84.553-60.093-87.432    c0-2.248,1.775-4.673,4.726-4.673c108.069,1.614,103.47,1.567,103.961,1.542c46.21-2.403,77.948,46.622,55.964,88.034    c-8.825,16.618-23.96,27.32-41.242,30.669c-4.202,0.814-6.95,4.882-6.135,9.084c0.818,4.223,4.902,6.945,9.084,6.135    C472.283,409.523,497.094,338.195,454.398,294.018z" fill="#40c1fa" data-original="#000000" style="" class=""/>
	</g>
</g>
<g xmlns="http://www.w3.org/2000/svg">
</g>
<g xmlns="http://www.w3.org/2000/svg">
</g>
<g xmlns="http://www.w3.org/2000/svg">
</g>
<g xmlns="http://www.w3.org/2000/svg">
</g>
<g xmlns="http://www.w3.org/2000/svg">
</g>
<g xmlns="http://www.w3.org/2000/svg">
</g>
<g xmlns="http://www.w3.org/2000/svg">
</g>
<g xmlns="http://www.w3.org/2000/svg">
</g>
<g xmlns="http://www.w3.org/2000/svg">
</g>
<g xmlns="http://www.w3.org/2000/svg">
</g>
<g xmlns="http://www.w3.org/2000/svg">
</g>
<g xmlns="http://www.w3.org/2000/svg">
</g>
<g xmlns="http://www.w3.org/2000/svg">
</g>
<g xmlns="http://www.w3.org/2000/svg">
</g>
<g xmlns="http://www.w3.org/2000/svg">
</g>
</g></svg>
