<?xml version="1.0"?>
<svg xmlns="http://www.w3.org/2000/svg" xmlns:xlink="http://www.w3.org/1999/xlink" xmlns:svgjs="http://svgjs.com/svgjs" version="1.1" width="512" height="512" x="0" y="0" viewBox="0 0 510 510" style="enable-background:new 0 0 512 512" xml:space="preserve" class=""><g><g xmlns="http://www.w3.org/2000/svg"><path d="m255 0c-140.931 0-255 114.05-255 255 0 140.93 114.049 255 255 255 140.93 0 255-114.051 255-255 0-140.93-114.051-255-255-255zm0 480c-124.065 0-225-100.935-225-225s100.935-225 225-225 225 100.935 225 225-100.935 225-225 225z" fill="#808080" data-original="#000000" style=""/><path d="m343.416 308.292-26.832 13.416 15.199 30.399c7.582 15.162 3.694 40.143-27.836 45.176-16.932 2.7-33.27-9.556-33.925-26.963-.035-.872-.018-38.568-.022-115.32h75v-30h-75v-82.5c0-28.948-23.552-52.5-52.5-52.5s-52.5 23.552-52.5 52.5v7.5h30v-7.5c0-12.406 10.094-22.5 22.5-22.5s22.5 10.094 22.5 22.5v82.5h-30v30h30c.016 120.877-.039 114.31.044 116.466 1.322 35.032 33.629 61.031 68.632 55.442 51.746-8.26 66.465-55.167 49.94-88.217z" fill="#808080" data-original="#000000" style=""/></g></g></svg>
